<svg width="17" height="16" viewBox="0 0 17 16" fill="none" xmlns="http://www.w3.org/2000/svg">
<path d="M11.3118 9.50326H10.7852L10.5985 9.32326C11.2518 8.56326 11.6452 7.57659 11.6452 6.50326C11.6452 4.10992 9.70518 2.16992 7.31185 2.16992C4.91852 2.16992 2.97852 4.10992 2.97852 6.50326C2.97852 8.89659 4.91852 10.8366 7.31185 10.8366C8.38518 10.8366 9.37185 10.4433 10.1318 9.78992L10.3118 9.97659V10.5033L13.6452 13.8299L14.6385 12.8366L11.3118 9.50326ZM7.31185 9.50326C5.65185 9.50326 4.31185 8.16326 4.31185 6.50326C4.31185 4.84326 5.65185 3.50326 7.31185 3.50326C8.97185 3.50326 10.3118 4.84326 10.3118 6.50326C10.3118 8.16326 8.97185 9.50326 7.31185 9.50326Z" fill="#ADACCD"/>
</svg>
