<svg width="24" height="24" viewBox="0 0 24 24" fill="none" xmlns="http://www.w3.org/2000/svg">
<path d="M21.2358 12.9766L21.2378 13.0215L21.3511 13.0254L21.353 13.0703L21.4673 13.0713V13.1357L21.5806 13.1387C21.5748 13.2041 21.6296 13.1896 21.645 13.2051C21.6526 13.2128 21.6449 13.2377 21.6528 13.2451C21.6619 13.2539 21.6893 13.245 21.6958 13.25C21.7067 13.2606 21.6906 13.3005 21.7007 13.3115C21.7063 13.317 21.736 13.308 21.7446 13.3154C21.7596 13.3289 21.7536 13.3934 21.769 13.4062C21.7869 13.421 21.8275 13.3824 21.8169 13.4727C21.9151 13.4653 21.8319 13.5928 21.9312 13.5947C21.9368 13.6999 21.901 13.819 21.981 13.8994V13.9023C21.9288 14.4138 22.0459 15.0472 21.981 15.5439C21.9773 15.5722 21.9514 15.5666 21.9478 15.5801C21.923 15.6681 21.9292 15.7571 21.9312 15.8477L21.8833 15.8584C21.8668 15.9094 21.888 15.9806 21.8169 15.9707L21.814 16.082L21.7495 16.084L21.7446 16.127L21.7007 16.1318C21.7114 16.2208 21.669 16.1829 21.6528 16.1982C21.6452 16.2056 21.6526 16.2306 21.645 16.2383C21.6296 16.2537 21.5746 16.239 21.5806 16.3047L21.4673 16.3066V16.3711L21.3608 16.3701L21.3511 16.418C21.2352 16.3974 21.182 16.477 21.0786 16.4834L18.3413 16.4824L18.3306 16.5303C18.2313 16.5208 18.1236 16.5591 18.0923 16.6455L17.9858 16.6445V16.709L17.9204 16.7109L17.9165 16.7539L17.8726 16.7578L17.8706 16.8213L17.8052 16.8232L17.8013 16.8652L17.7573 16.8701L17.7554 16.9336L17.6899 16.9355L17.686 16.9775L17.6421 16.9824L17.6401 17.0459L17.5747 17.0469L17.5708 17.0898L17.5269 17.0947L17.5249 17.1572L17.4595 17.1592L17.4556 17.2021L17.4116 17.207L17.4097 17.2695L17.3442 17.2715L17.3403 17.3145L17.2964 17.3193L17.2944 17.3818L17.229 17.3838L17.2251 17.4268L17.1812 17.4316L17.1792 17.4941H17.1128L17.1108 17.5566L17.0669 17.5615L17.062 17.6045L16.9976 17.6064L16.9956 17.6689L16.9517 17.6738L16.9468 17.7168L16.8823 17.7188L16.8804 17.7812L16.8364 17.7861L16.8315 17.8291L16.7671 17.8311V17.8955L16.7026 17.8975L16.6968 17.9404L16.6538 17.9453L16.6489 18.0059L16.605 18.0107L16.6001 18.0537L16.5347 18.0557L16.5327 18.1182L16.4888 18.123L16.4849 18.166L16.4204 18.168V18.2324L16.355 18.2344L16.3511 18.2773L16.3071 18.2812L16.3052 18.3447L16.2397 18.3467L16.2358 18.3896L16.1919 18.3936L16.1899 18.457L16.1245 18.459L16.1206 18.501L16.0767 18.5059L16.0747 18.5693L16.0093 18.5713L16.0054 18.6133L15.9614 18.6182L15.9595 18.6816L15.894 18.6836L15.8901 18.7256L15.8462 18.7305L15.8442 18.793L15.7788 18.7949L15.7749 18.8379L15.731 18.8428L15.729 18.9053L15.6636 18.9072L15.6597 18.9502L15.6157 18.9551L15.6138 19.0176L15.5483 19.0195L15.5444 19.0625L15.5005 19.0674L15.4985 19.1299L15.4331 19.1318L15.4292 19.1748L15.3853 19.1797L15.3833 19.2422L15.3179 19.2441C15.3215 19.2594 15.2557 19.3426 15.2466 19.3516C15.2304 19.3664 15.1842 19.3302 15.2017 19.4199L15.1362 19.4219L15.1323 19.4639L15.0884 19.4688L15.0864 19.5312L15.021 19.5332L15.0171 19.5762L14.9731 19.5811L14.9712 19.6436L14.9058 19.6455L14.9009 19.6885L14.8579 19.6934L14.855 19.7559L14.7905 19.7578L14.7856 19.8008L14.7417 19.8057L14.7397 19.8682L14.6753 19.8701L14.6704 19.9131L14.6265 19.918L14.6245 19.9805L14.5601 19.9824L14.5552 20.0254L14.5112 20.0303L14.5093 20.0928L14.4448 20.0947L14.4399 20.1377L14.396 20.1416L14.394 20.2051L14.3296 20.207L14.3247 20.25L14.2808 20.2539L14.2788 20.3174L14.2144 20.3193L14.2095 20.3623L14.1655 20.3662L14.1636 20.4297L14.0991 20.4316L14.0942 20.4746L14.0503 20.4785L14.0483 20.542L13.9839 20.5439L13.979 20.5869L13.9351 20.5908L13.9331 20.6543L13.8687 20.6562C13.8802 20.7186 13.8286 20.6946 13.8091 20.7188C13.7796 20.7558 13.827 20.7781 13.7046 20.7686C13.7092 20.8467 13.6234 20.8072 13.6343 20.877L13.521 20.8789V20.9434L13.3647 20.9424L13.3462 20.9922H10.9224L10.9126 20.9453C10.9053 20.9386 10.7793 20.949 10.7417 20.9277C10.7205 20.9147 10.7542 20.857 10.6353 20.877C10.6419 20.8107 10.584 20.8257 10.5698 20.8105C10.5616 20.8019 10.5706 20.7737 10.5649 20.7686C10.5531 20.7587 10.5142 20.7745 10.5024 20.7646C10.4965 20.7595 10.5059 20.7318 10.4976 20.7227C10.4883 20.7127 10.4577 20.7198 10.4429 20.7012C10.4003 20.648 10.3964 20.662 10.3872 20.6523C10.3767 20.6409 10.3932 20.6022 10.3833 20.5908C10.377 20.5844 10.3454 20.5978 10.3345 20.5791C10.3084 20.5341 10.3518 20.4723 10.2681 20.4678V20.3652L10.2192 20.3555L10.2046 19.875L10.1528 19.8574V18.1709L10.2017 18.1611L10.2036 18.0498H10.27L10.269 17.9453L10.3159 17.9346C10.3264 17.925 10.3231 17.8565 10.3354 17.835C10.3453 17.8183 10.3721 17.8292 10.3813 17.8203C10.4164 17.7856 10.4626 17.7411 10.4966 17.707C10.5046 17.6985 10.4972 17.674 10.5034 17.667C10.514 17.6558 10.5845 17.6603 10.606 17.6484C10.6287 17.6356 10.591 17.5822 10.6812 17.5967C10.6599 17.5093 10.8288 17.5483 10.8462 17.5332L10.856 17.4854L13.0493 17.4873C13.0578 17.4082 13.1467 17.4241 13.2144 17.4229L13.2251 17.377C13.2346 17.3667 13.3057 17.3701 13.3276 17.3584C13.3508 17.3455 13.3133 17.2925 13.4038 17.3076L13.4058 17.2627L13.4683 17.2588L13.4741 17.2158L13.5181 17.2109L13.52 17.1484L13.5845 17.1465L13.5894 17.1035L13.6333 17.0996L13.6353 17.0361L13.6997 17.0342L13.7046 16.9912L13.7485 16.9873L13.7505 16.9238L13.8149 16.9219L13.8198 16.8789L13.8638 16.875L13.8657 16.8115L13.9302 16.8096L13.9351 16.7666L13.979 16.7627L13.981 16.6992H14.0464V16.6348L14.1118 16.6328L14.1157 16.5898L14.1597 16.5859L14.1616 16.5225L14.2271 16.5205L14.231 16.4775L14.2749 16.4736L14.2769 16.4102L14.3423 16.4082L14.3462 16.3652L14.3901 16.3613L14.3921 16.2979L14.4575 16.2959L14.4614 16.2529L14.5054 16.249L14.5073 16.1855L14.5728 16.1836L14.5767 16.1416L14.6206 16.1367L14.6226 16.0732L14.688 16.0713L14.6919 16.0293L14.7358 16.0244L14.7378 15.9619L14.8022 15.959C14.7948 15.9139 14.8274 15.9151 14.8433 15.8945C14.8666 15.864 14.8343 15.8393 14.9185 15.8467L14.9233 15.8037L14.9673 15.7988L14.9692 15.7354L15.0337 15.7334L15.0386 15.6914L15.0825 15.6865L15.0845 15.623L15.1489 15.6211L15.1538 15.5791L15.1978 15.5742C15.1888 15.4877 15.2224 15.5235 15.2495 15.5029C15.2733 15.4848 15.251 15.4383 15.312 15.4434C15.3114 15.3528 15.4005 15.4491 15.3843 15.3359L15.4282 15.3311L15.4331 15.2891L15.4976 15.2871L15.4995 15.2236L15.5435 15.2197L15.5483 15.1768L15.6128 15.1748L15.6147 15.1113L15.6587 15.1074L15.6636 15.0645L15.728 15.0625L15.73 14.999L15.7739 14.9951L15.7788 14.9521L15.8433 14.9502L15.8452 14.8867L15.8892 14.8828L15.894 14.8398L15.9585 14.8379L15.9604 14.7744L16.0044 14.7705L16.0093 14.7275L16.0737 14.7256V14.6611L16.1382 14.6592L16.1431 14.6162L16.187 14.6123L16.189 14.5488L16.2534 14.5469L16.2583 14.5039L16.3022 14.5L16.3042 14.4365L16.3687 14.4346C16.3611 14.3892 16.3938 14.3907 16.4097 14.3701C16.4329 14.3396 16.3999 14.3139 16.4839 14.3213L16.4888 14.2783L16.5327 14.2734L16.5347 14.2109L16.5991 14.209L16.604 14.166L16.6479 14.1621L16.6499 14.0986L16.7144 14.0967L16.7192 14.0537L16.7632 14.0488C16.7544 13.963 16.7879 13.9987 16.8149 13.9785C16.839 13.9606 16.8166 13.9141 16.8774 13.9189C16.8768 13.8284 16.9657 13.9242 16.9497 13.8115L16.9937 13.8066L16.9985 13.7637L17.063 13.7617L17.0649 13.6992L17.1089 13.6943L17.1138 13.6514L17.1782 13.6494L17.1802 13.5869L17.2241 13.582L17.229 13.5391L17.2935 13.5371L17.2954 13.4746L17.3394 13.4697L17.3442 13.4268L17.4087 13.4248L17.4106 13.3623L17.4546 13.3574L17.4595 13.3154L17.5239 13.3135V13.248L17.5884 13.2461C17.572 13.1726 17.6642 13.2043 17.686 13.1807C17.7012 13.1636 17.661 13.1236 17.7534 13.1338C17.7414 13.0386 17.8881 13.117 17.8716 13.0254L18.0435 13.0244L18.061 12.9746L21.2358 12.9766ZM18.0581 6.06055C19.0928 5.99366 20.203 6.11328 21.2456 6.06055C21.2883 6.0505 21.293 6.09582 21.3062 6.10449C21.3603 6.13729 21.42 6.09507 21.4263 6.17578C21.5434 6.14498 21.503 6.23479 21.5786 6.24219C21.578 6.33284 21.666 6.23658 21.6499 6.34961L21.6938 6.35449L21.6987 6.39746L21.7632 6.39941L21.7651 6.46289L21.8149 6.47266L21.8208 6.56152L21.8804 6.58594L21.8813 6.6875L21.9302 6.69727C21.9312 6.78146 21.9171 6.86855 21.9468 6.94922C21.9514 6.96144 21.9763 6.95641 21.98 6.98535C22.0423 7.47473 21.9298 8.09156 21.98 8.59473C21.9027 8.67158 21.9341 8.78184 21.9302 8.88281L21.8813 8.8916C21.8741 8.9244 21.887 8.96166 21.8765 8.99414C21.8692 9.01478 21.8378 9.016 21.8286 9.03027C21.8019 9.07269 21.8409 9.12835 21.7661 9.11719L21.7642 9.18066H21.6978L21.6958 9.24316L21.6519 9.24805L21.647 9.29102C21.5556 9.28076 21.5945 9.32182 21.5786 9.33789C21.5709 9.34508 21.5455 9.33867 21.5376 9.3457C21.5108 9.37066 21.5384 9.42869 21.4185 9.4082L21.4155 9.45117C21.3396 9.45439 21.3137 9.47387 21.2612 9.51953L18.3901 9.51758L18.3804 9.56543L18.2271 9.58203L18.2075 9.63184L18.103 9.63379C18.1147 9.69552 18.0629 9.67221 18.0435 9.69629C18.0139 9.7334 18.0608 9.75571 17.938 9.74609C17.9443 9.81201 17.8904 9.7974 17.8745 9.81348C17.6609 10.0318 17.4507 10.2657 17.2212 10.4795C16.7477 10.9203 16.299 11.3793 15.8364 11.8301C15.3424 12.3114 14.8429 12.7867 14.3442 13.2529C14.1597 13.4255 13.9798 13.6298 13.8071 13.8066C13.7969 13.8169 13.7676 13.8104 13.7534 13.8281C13.7442 13.8401 13.7496 13.8682 13.7427 13.874C13.7307 13.8842 13.6914 13.868 13.6802 13.8779C13.6743 13.8833 13.6831 13.9112 13.6763 13.9199C13.6647 13.9325 13.6138 13.9292 13.5923 13.9404C13.5597 13.9579 13.5563 14.013 13.4653 13.9902L13.4634 14.0352L13.1763 14.0518L13.1587 14.1025L10.4536 14.0996L10.4438 14.1475C10.4336 14.1571 10.3668 14.1421 10.3394 14.1514C10.3053 14.1629 10.3319 14.2451 10.2144 14.2158L10.2124 14.252C10.1978 14.2554 10.1667 14.2474 10.1558 14.2559C10.1379 14.2706 10.1593 14.3472 10.0376 14.3174L10.0356 14.3809L9.9917 14.3857L9.98682 14.4287L9.92236 14.4307L9.92041 14.4932L9.87646 14.498L9.87158 14.541L9.80713 14.543V14.6074L9.74268 14.6094L9.73779 14.6514L9.69385 14.6562L9.69189 14.7197L9.62744 14.7217L9.62256 14.7637L9.57861 14.7686L9.57666 14.832L9.51221 14.834L9.50732 14.876L9.46338 14.8809L9.46143 14.9434L9.39697 14.9463C9.40658 14.9935 9.30777 15.0368 9.28369 15.0615C9.18839 15.1586 9.10008 15.287 8.97705 15.373C8.9513 15.391 8.91989 15.3559 8.93408 15.4424L8.86865 15.4443C8.88474 15.5188 8.79678 15.4854 8.77295 15.5107C8.60188 15.6918 8.44114 15.8701 8.24365 16.0254C8.24464 16.1147 8.15651 16.0194 8.17236 16.1318L8.12842 16.1367L8.12354 16.1797L8.05908 16.1816L8.05713 16.2441L8.01318 16.249L8.0083 16.292L7.94385 16.2939L7.94189 16.3564L7.89795 16.3613L7.89307 16.4043L7.82861 16.4062V16.4707L7.76416 16.4727C7.7701 16.5186 7.69559 16.5524 7.66455 16.5762C7.6347 16.5993 7.55947 16.7069 7.52783 16.7402C7.51224 16.756 7.44918 16.7499 7.43604 16.7646C7.42171 16.7811 7.45954 16.8252 7.3667 16.8086L7.36475 16.8711L7.3208 16.876L7.31592 16.9189L7.25146 16.9209L7.24951 16.9834L7.20557 16.9883L7.20068 17.0312L7.13623 17.0322L7.13428 17.0957L7.09033 17.1006L7.08545 17.1436C7.01808 17.1333 7.00482 17.1985 6.95264 17.248C6.77472 17.4178 6.60796 17.5803 6.43994 17.752C6.4297 17.7622 6.40043 17.7558 6.38623 17.7734C6.37706 17.7854 6.38241 17.8136 6.37549 17.8193C6.36354 17.8295 6.32589 17.8144 6.31396 17.8242C6.30901 17.8284 6.26819 17.9239 6.25928 17.9316C6.24661 17.9421 6.20895 17.9269 6.19775 17.9365C6.19185 17.942 6.20013 17.9702 6.19287 17.9785C6.17916 17.9932 6.11755 17.9862 6.10107 18.0029C6.09323 18.0107 6.09475 18.0357 6.07861 18.0527C6.01536 18.1181 5.9228 18.174 5.86963 18.2266C5.85444 18.2417 5.89146 18.2888 5.79932 18.2715L5.79736 18.334L5.75342 18.3389L5.74951 18.3818L5.68408 18.3838L5.68213 18.4463L5.63818 18.4512L5.63428 18.4941L5.56885 18.4961L5.56689 18.5586L5.52295 18.5635L5.51904 18.6064L5.45459 18.6084V18.6729L5.38916 18.6748C5.4015 18.77 5.25449 18.6916 5.271 18.7832L5.15771 18.7871L5.14795 18.835L4.93506 18.8486L4.9165 18.8994H2.90576L2.88525 18.8496L2.73193 18.832L2.72217 18.7842L2.61768 18.7832C2.62395 18.717 2.56748 18.7319 2.55322 18.7168C2.53737 18.7004 2.57634 18.6609 2.48486 18.6709L2.47998 18.6279L2.43604 18.623L2.43408 18.5605H2.36768L2.3667 18.4971L2.3208 18.4951L2.31689 18.4326C2.22511 18.4455 2.29692 18.3209 2.20557 18.334L2.20459 18.167L2.15576 18.1572C2.1155 17.5146 2.1471 16.8666 2.13721 16.2217C2.14348 16.1211 2.22557 16.0697 2.20459 15.957L2.25342 15.9473L2.25244 15.8438H2.31885L2.3208 15.7803C2.39709 15.7967 2.36439 15.7064 2.38916 15.6855C2.40655 15.6721 2.45116 15.7083 2.43408 15.6182L2.49854 15.6162L2.50342 15.5742L2.54736 15.5693L2.54932 15.5059H2.66553V15.4414L2.82178 15.4424L2.83936 15.3916C2.93909 15.4077 3.04146 15.3795 3.13525 15.376C3.65043 15.3567 4.31581 15.4371 4.80322 15.3779C4.83293 15.3744 4.82811 15.3499 4.84033 15.3457C4.92308 15.3173 5.0131 15.3314 5.09912 15.3301L5.10889 15.2822H5.21436C5.21204 15.1999 5.31529 15.2354 5.33643 15.2129C5.34252 15.206 5.3344 15.1808 5.34229 15.1729C5.35219 15.1626 5.3818 15.1691 5.396 15.1514C5.4259 15.1141 5.37838 15.0919 5.50146 15.1016C5.49519 15.0356 5.55007 15.0503 5.56592 15.0342C5.75767 14.8381 5.95154 14.6225 6.15088 14.4316C6.16665 14.4171 6.21354 14.4525 6.1958 14.3633C6.28045 14.379 6.24948 14.3433 6.27979 14.3096C6.33725 14.2459 6.44165 14.1516 6.50439 14.0928C6.53423 14.0649 6.60153 14.0283 6.60596 14.0234C6.61647 14.0113 6.60093 13.9756 6.61084 13.9639C6.61348 13.961 6.64719 13.9486 6.67725 13.9238C6.77589 13.8428 6.88219 13.7386 6.96533 13.6426C6.99043 13.6136 7.00305 13.5807 7.00635 13.5781C7.01874 13.5681 7.05604 13.5832 7.06787 13.5732C7.07461 13.5671 7.06982 13.5401 7.07861 13.5283C7.09243 13.5107 7.12198 13.5173 7.13232 13.5068C7.32411 13.3108 7.51791 13.0952 7.71729 12.9043C7.73281 12.8892 7.78102 12.9257 7.76318 12.8359C7.84806 12.8517 7.81645 12.815 7.84717 12.7812C7.9046 12.7177 8.0081 12.6242 8.0708 12.5654C8.1004 12.5376 8.16856 12.5012 8.17334 12.4961C8.18391 12.4839 8.16798 12.4471 8.17822 12.4355C8.18236 12.4323 8.21449 12.4201 8.24365 12.3965C8.34268 12.3148 8.44918 12.2117 8.53271 12.1152C8.55781 12.0863 8.57043 12.0534 8.57373 12.0508C8.58614 12.0408 8.62342 12.0558 8.63525 12.0459C8.64209 12.0397 8.63678 12.0115 8.646 12C8.65984 11.9826 8.68936 11.9899 8.69971 11.9795C8.89158 11.7833 9.0852 11.567 9.28467 11.376C9.30035 11.3613 9.34813 11.3975 9.33057 11.3086C9.41507 11.3242 9.38387 11.2876 9.41455 11.2539C9.47205 11.1902 9.57549 11.0959 9.63818 11.0371C9.66788 11.0093 9.73488 10.9729 9.73975 10.9678C9.75031 10.9556 9.73537 10.9198 9.74561 10.9082C9.75052 10.9036 9.77423 10.9094 9.78564 10.9014C9.85269 10.8538 9.94504 10.7565 9.9751 10.6992L10.0376 10.6953C10.03 10.5992 10.1626 10.6798 10.1646 10.583C10.2418 10.583 10.3501 10.587 10.4233 10.5674C10.4303 10.5655 10.4939 10.5035 10.5435 10.5205L13.1655 10.5215C13.171 10.4218 13.3039 10.5023 13.2925 10.4102L13.355 10.4062C13.3385 10.3322 13.4309 10.3636 13.4526 10.3398C13.4675 10.3231 13.4288 10.2792 13.522 10.2959L13.5239 10.2324L13.5679 10.2285L13.5728 10.1855L13.6372 10.1836L13.6392 10.1201L13.6831 10.1162L13.688 10.0732L13.7524 10.0713L13.7544 10.0078L13.7983 10.0039L13.8032 9.96094L13.8677 9.95898L13.8696 9.89551L13.9136 9.8916L13.9185 9.84863L13.9829 9.84668L13.9849 9.78418L14.0288 9.7793L14.0337 9.73633L14.0981 9.73438V9.66992L14.1626 9.66797L14.1675 9.625L14.2114 9.62109L14.2134 9.55762L14.2778 9.55566L14.2827 9.5127L14.3267 9.50879L14.3286 9.44531L14.3931 9.44336L14.3979 9.40039L14.4419 9.39648L14.4438 9.33301L14.5083 9.33105L14.5132 9.28809L14.5571 9.28418L14.5591 9.2207L14.6235 9.21875L14.6284 9.17676L14.6724 9.17188L14.6743 9.1084L14.7388 9.10645L14.7437 9.06445L14.7876 9.05957L14.7896 8.99707H14.856L14.8579 8.93359L14.9019 8.92969L14.9067 8.88672L14.9712 8.88477L14.9731 8.82129L15.0171 8.81738L15.022 8.77441L15.0864 8.77246L15.0884 8.70898L15.1323 8.70508L15.1372 8.66211L15.2017 8.66016L15.2036 8.59668L15.2476 8.59277L15.2524 8.5498L15.3169 8.54785L15.3188 8.48535L15.3628 8.48047L15.3677 8.4375L15.4321 8.43555L15.4341 8.37305L15.478 8.36816L15.4829 8.3252L15.5474 8.32324L15.5493 8.26074L15.5933 8.25586L15.5981 8.21289L15.6626 8.21094V8.14648L15.7271 8.14453L15.7319 8.10156L15.7759 8.09766L15.7778 8.03418L15.8423 8.03223L15.8472 7.98926L15.8911 7.98535L15.8931 7.92188L15.9575 7.91992L15.9624 7.87793L16.0063 7.87305L16.0083 7.80957L16.0728 7.80762L16.0776 7.76562L16.1216 7.76074L16.1235 7.69824L16.188 7.69629L16.1929 7.65332L16.2368 7.64844L16.2388 7.58594L16.3032 7.58398L16.3081 7.54102L16.3521 7.53613L16.354 7.47363H16.4204L16.4224 7.41016L16.4663 7.40625L16.4702 7.36328L16.5356 7.36133L16.5376 7.29883L16.5815 7.29395L16.5864 7.25098L16.6509 7.24902L16.6528 7.18652L16.6968 7.18164L16.7017 7.13867L16.7661 7.13672L16.7681 7.07422L16.812 7.06934L16.8169 7.02637L16.8813 7.02441L16.8833 6.96191L16.9272 6.95703L16.9321 6.91406L16.9966 6.91211L16.9985 6.84961L17.0425 6.84473L17.0474 6.80176L17.1118 6.7998L17.1138 6.7373L17.1577 6.73242L17.1626 6.69043L17.2271 6.68848V6.62305L17.2915 6.62109L17.2964 6.5791L17.3403 6.57422L17.3423 6.51074L17.4067 6.50879L17.4116 6.4668L17.4556 6.46191L17.4575 6.39941L17.522 6.39746L17.5269 6.35449L17.5708 6.34961L17.5728 6.28711L17.6372 6.28418C17.6278 6.22147 17.6696 6.24626 17.6831 6.23438C17.7099 6.20984 17.6821 6.15042 17.8022 6.17188L17.8042 6.12793C17.8134 6.11893 17.8796 6.13269 17.9087 6.12305C17.948 6.10981 17.9286 6.06895 18.0581 6.06055ZM10.2124 14.2598V14.252C10.2145 14.2515 10.217 14.2531 10.2183 14.252L10.2124 14.2598ZM10.0142 4.01953C10.9729 3.95683 12.0029 4.06873 12.9692 4.01953L13.1069 4.04004L13.1177 4.08594L13.2642 4.08398C13.2697 4.18349 13.4027 4.10312 13.3911 4.19531L13.4536 4.19922L13.4585 4.24219L13.5024 4.24707L13.5044 4.30957H13.5708L13.5737 4.37305C13.638 4.36363 13.612 4.40643 13.6245 4.41895C13.6329 4.42709 13.6593 4.41841 13.6665 4.4248C13.6888 4.44453 13.6531 4.54628 13.7368 4.54395L13.7388 4.64648C13.8005 4.63516 13.7999 4.7025 13.8032 4.75098C13.8075 4.80886 13.7996 4.86953 13.8013 4.92773L13.853 4.94531V6.62695L13.8013 6.64453C13.7953 6.70294 13.8137 6.78194 13.8032 6.83691C13.796 6.87405 13.7644 6.86905 13.7534 6.88867C13.74 6.91324 13.7429 6.97592 13.7329 6.98633C13.725 6.99372 13.6963 6.98231 13.686 7C13.6741 7.022 13.678 7.08971 13.6665 7.09961C13.6589 7.10547 13.6339 7.09768 13.6255 7.10547C13.6129 7.11801 13.6385 7.16101 13.5737 7.15137L13.5718 7.21484L13.5073 7.2168L13.5024 7.25977L13.4585 7.26367L13.4565 7.32715L13.3911 7.3291L13.3872 7.37207C13.3264 7.38821 13.2738 7.36699 13.2651 7.44043L13.1597 7.44141L13.1499 7.48926L10.4937 7.4873C10.441 7.46649 10.368 7.5316 10.3589 7.53516C10.2981 7.54898 10.1964 7.54789 10.1313 7.55078L10.1216 7.59863C10.0274 7.57627 10.0279 7.62982 9.99561 7.64941C9.96976 7.66463 9.92019 7.65836 9.91064 7.66797C9.89049 7.68859 9.8469 7.78285 9.79639 7.78027C9.79705 7.87085 9.7082 7.77513 9.72412 7.8877L9.68018 7.89258L9.67627 7.93555L9.61084 7.9375L9.60889 8L9.56494 8.00488L9.56104 8.04785L9.49561 8.0498L9.49365 8.1123L9.44971 8.11719L9.4458 8.16016L9.38135 8.16211V8.22656L9.31592 8.22852L9.31201 8.27148L9.26807 8.27539L9.26611 8.33887L9.20068 8.34082L9.19678 8.38281L9.15283 8.3877L9.15088 8.45117L9.08545 8.45312L9.08154 8.49512L9.0376 8.5L9.03564 8.56348L8.97021 8.56445L8.96631 8.60742L8.92236 8.6123L8.92041 8.6748L8.85498 8.67676L8.85107 8.71973L8.80713 8.72461L8.80518 8.78711L8.73975 8.78906L8.73584 8.83203L8.69189 8.83691L8.68994 8.89941L8.62451 8.90137L8.62061 8.94434L8.57666 8.94922L8.57471 9.01172H8.5083L8.50635 9.07422L8.4624 9.0791L8.45752 9.12207L8.39307 9.12402L8.39111 9.18652L8.34717 9.19141L8.34229 9.23438L8.27783 9.23633L8.27588 9.29883L8.23193 9.30371L8.22705 9.34668L8.1626 9.34863L8.15967 9.41113L8.1167 9.41602L8.11182 9.45898L8.04639 9.46094L8.04443 9.52344L8.00049 9.52832L7.99658 9.57031L7.93115 9.57227L7.9292 9.63574L7.88525 9.64062L7.88135 9.68262L7.81689 9.68457V9.75L7.75244 9.75195L7.74756 9.79395L7.70361 9.79883L7.70166 9.86133L7.63623 9.86328L7.63232 9.90625L7.58838 9.91113L7.58643 9.97363L7.521 9.97559L7.51709 10.0186L7.47314 10.0234L7.47119 10.0859L7.40576 10.0879L7.40186 10.1309L7.35791 10.1357L7.35596 10.1982L7.29053 10.2002L7.28662 10.2432L7.24268 10.248L7.24072 10.3105L7.17529 10.3125L7.17139 10.3555L7.12744 10.3604L7.12549 10.4229L7.06006 10.4248L7.05615 10.4678L7.01221 10.4717L7.01025 10.5352H6.94385L6.94189 10.5977L6.89795 10.6025L6.89307 10.6455L6.82861 10.6475L6.82666 10.71L6.78271 10.7148L6.77783 10.7578L6.71338 10.7588L6.71143 10.8223L6.66748 10.8271L6.6626 10.8691L6.59814 10.8711L6.59619 10.9346L6.55225 10.9395L6.54736 10.9814L6.48291 10.9834V11.0488L6.41846 11.0498L6.41357 11.0928L6.36963 11.0977L6.36768 11.1602L6.30322 11.1621L6.29834 11.2051L6.25439 11.21L6.25244 11.2725L6.18799 11.2744L6.18311 11.3174L6.13916 11.3223L6.13721 11.3848L6.07275 11.3867L6.06787 11.4297L6.02393 11.4346L6.02197 11.4971L5.95752 11.499L5.95264 11.542L5.90869 11.5469L5.90674 11.6094L5.84131 11.6113L5.8374 11.6543L5.79346 11.6582L5.7915 11.7217L5.72607 11.7236C5.74291 11.7979 5.65094 11.766 5.62939 11.79C5.61486 11.8068 5.65286 11.851 5.56006 11.834V11.8984L5.49463 11.8994L5.48486 11.9473L5.37939 11.9492C5.38547 12.0396 5.22355 12.0044 5.15674 12.0098L5.13818 12.0605H2.896L2.87744 12.0098L2.6665 11.9951L2.64697 11.9453L2.5415 11.9443C2.55074 11.8836 2.51285 11.9056 2.4917 11.8896C2.48774 11.8864 2.43318 11.8349 2.42822 11.8301C2.42028 11.8215 2.42859 11.7961 2.42236 11.7891C2.39317 11.7578 2.26985 11.8204 2.30908 11.6738H2.24268L2.2417 11.6104L2.1958 11.6074L2.19189 11.5459L2.19092 11.5371C2.10119 11.5572 2.14132 11.3911 2.12549 11.375L2.07666 11.3662L2.06201 10.8672L2.02686 10.8213C2.04667 10.338 1.97292 9.82026 2.01123 9.33984C2.01581 9.27918 2.01238 9.21415 2.07861 9.21094L2.07666 9.06836L2.12354 9.05762C2.13409 9.04798 2.13088 8.978 2.14307 8.95703C2.15389 8.93851 2.18466 8.95143 2.19092 8.94531C2.20149 8.93406 2.18523 8.89504 2.1958 8.88379C2.20131 8.87805 2.29249 8.82652 2.30518 8.81348C2.3207 8.79676 2.28206 8.75761 2.37354 8.76758C2.36433 8.70518 2.40665 8.72989 2.42041 8.71777C2.42899 8.70974 2.42166 8.68517 2.42822 8.67773C2.4444 8.65941 2.52571 8.66554 2.5376 8.65332C2.54482 8.64543 2.53273 8.61845 2.55029 8.6084C2.59653 8.58267 2.6596 8.62465 2.66455 8.54297L4.7915 8.5459L4.81006 8.49512L5.07275 8.48145L5.08252 8.43359L5.1626 8.42969C5.145 8.35601 5.23881 8.38737 5.26025 8.36328C5.2742 8.3463 5.2366 8.3029 5.32861 8.31934L5.33057 8.25684L5.37451 8.25195L5.37939 8.20898L5.44385 8.20703V8.14258L5.5083 8.14062L5.51318 8.09766L5.55713 8.09375L5.55908 8.03027L5.62354 8.02832L5.62842 7.98535L5.67236 7.98145L5.67432 7.91797L5.73877 7.91602L5.74365 7.87402L5.7876 7.86914L5.78955 7.80566L5.854 7.80371L5.85889 7.76172L5.90283 7.75684L5.90479 7.69336L5.96924 7.69141L5.97412 7.64941L6.01807 7.64453L6.02002 7.58203L6.08447 7.58008L6.08936 7.53711L6.1333 7.53223L6.13525 7.46973L6.19971 7.46777L6.20459 7.4248L6.24854 7.41992L6.25049 7.35742L6.31494 7.35547L6.31982 7.3125L6.36377 7.30762L6.36572 7.24512L6.43018 7.24316L6.43506 7.2002L6.479 7.19531L6.48096 7.13281L6.54541 7.13086L6.55029 7.08789L6.59424 7.08301L6.59619 7.02051L6.66162 7.01855L6.66553 6.97559L6.70947 6.97168L6.71143 6.9082L6.77686 6.90625L6.78076 6.86328L6.82471 6.85938L6.82666 6.7959L6.89209 6.79395L6.896 6.75098L6.93994 6.74707L6.94189 6.68359H7.0083V6.61914L7.07275 6.61719L7.07764 6.57422L7.12158 6.57031L7.12354 6.50684L7.18799 6.50488L7.19287 6.46191L7.23682 6.45801L7.23877 6.39453L7.30322 6.39258L7.30811 6.34961L7.35205 6.3457L7.354 6.28223L7.41846 6.28027L7.42334 6.2373L7.46729 6.2334L7.46924 6.16992L7.53369 6.16797L7.53857 6.12598L7.58252 6.12109L7.58447 6.05762L7.64893 6.05566L7.65381 6.01367L7.69775 6.00879L7.69971 5.94629L7.76416 5.94434L7.76904 5.90137L7.81299 5.89648L7.81494 5.83398L7.87939 5.83203L7.88428 5.78906L7.92822 5.78418L7.93018 5.72168L7.99463 5.71973L7.99951 5.67676L8.04346 5.67188L8.04541 5.60938L8.10986 5.60742L8.11475 5.56445L8.15869 5.55957L8.16064 5.49707L8.2251 5.49512L8.22998 5.45215L8.27393 5.44727L8.27588 5.38477L8.34033 5.38281L8.34521 5.33984L8.38916 5.33594L8.39111 5.27246L8.45654 5.27051L8.46045 5.22754L8.50439 5.22363L8.50635 5.16016H8.57275V5.0957L8.63721 5.09375L8.64209 5.05078L8.68604 5.04688L8.68799 4.9834L8.75244 4.98145L8.75732 4.93848L8.80127 4.93457L8.80322 4.87109L8.86768 4.86914L8.87256 4.82617L8.9165 4.82227L8.91846 4.75879L8.98291 4.75684L8.98779 4.71387L9.03174 4.70996L9.03369 4.64648L9.09814 4.64453L9.10303 4.60156L9.14697 4.59766L9.14893 4.53418L9.21338 4.53223L9.21826 4.49023L9.26221 4.48535L9.26416 4.42188L9.32861 4.41992L9.3335 4.37793L9.37744 4.37305L9.37939 4.30957L9.44385 4.30762L9.44873 4.26562L9.49268 4.26074L9.49463 4.19727L9.60889 4.19531C9.59436 4.17248 9.67409 4.1096 9.68994 4.10156C9.73289 4.08015 9.80132 4.08497 9.84912 4.08594L9.85889 4.03809C9.91205 4.0413 9.96232 4.02307 10.0142 4.01953Z" fill="white"/>
</svg>
