<svg width="32" height="32" viewBox="0 0 32 32" fill="none" xmlns="http://www.w3.org/2000/svg">
<path d="M0 8C0 3.58172 3.58172 0 8 0H24C28.4183 0 32 3.58172 32 8V24C32 28.4183 28.4183 32 24 32H8C3.58172 32 0 28.4183 0 24V8Z" fill="url(#paint0_linear_4440_22529)"/>
<path d="M21.5518 17.472L21.5908 17.722C21.8231 18.9644 22.6325 20.129 23.7285 20.7357C24.1351 20.9607 24.5019 21.0593 24.9365 21.1927C24.9937 21.2102 25.0089 21.1669 24.9971 21.2748C23.426 21.5583 22.1873 22.7539 21.7031 24.2689C21.6329 24.489 21.6036 24.7115 21.5518 24.9349C21.5372 24.9981 21.5784 25.0068 21.4717 24.9965C21.2459 23.3724 20.2035 22.0331 18.6855 21.4496C18.4873 21.3733 18.2869 21.3367 18.0859 21.2767C18.0266 21.2593 18.0151 21.2997 18.0264 21.1937C19.3641 20.9658 20.5457 19.9918 21.1006 18.7543C21.2783 18.3579 21.376 17.9546 21.4717 17.5326C21.4861 17.469 21.4452 17.4623 21.5518 17.472ZM13.4463 9.62146L13.4834 9.89783C13.9049 12.7442 15.6592 15.3139 18.3105 16.4691C18.7821 16.6746 19.2261 16.7931 19.7139 16.9359C19.7679 16.9517 19.8264 16.9091 19.8086 17.0023C16.8338 17.6485 14.6415 19.9026 13.7598 22.7982L13.3857 24.3431C13.0362 21.7692 11.6295 19.2468 9.36621 17.9301C8.62241 17.4973 7.91587 17.2659 7.09863 17.0277C7.04462 17.0119 6.98614 17.0554 7.00391 16.9623C10.5643 16.1815 12.8464 13.2312 13.3672 9.68298C13.3774 9.61166 13.3458 9.61385 13.4463 9.62146ZM19.2822 7.0033C19.4465 8.33733 20.289 9.61974 21.458 10.267C21.8649 10.4921 22.2321 10.5914 22.667 10.725C22.7241 10.7423 22.7384 10.6987 22.7266 10.807C21.1555 11.0906 19.9167 12.2861 19.4326 13.8011C19.3624 14.0213 19.3331 14.2437 19.2812 14.4672C19.2667 14.5304 19.3081 14.539 19.2012 14.5287C18.9753 12.9045 17.9333 11.5642 16.415 10.9808C16.2168 10.9045 16.0164 10.8679 15.8154 10.808C15.7564 10.7909 15.7455 10.831 15.7568 10.725C17.0943 10.497 18.2762 9.52387 18.8311 8.2865C19.0088 7.89014 19.1065 7.48681 19.2021 7.06482C19.2167 7.00103 19.1752 6.99348 19.2822 7.0033Z" fill="white"/>
<defs>
<linearGradient id="paint0_linear_4440_22529" x1="0" y1="0" x2="32" y2="32" gradientUnits="userSpaceOnUse">
<stop stop-color="#72A7FF"/>
<stop offset="1" stop-color="#806BF5"/>
</linearGradient>
</defs>
</svg>
