<svg width="32" height="32" viewBox="0 0 32 32" fill="none" xmlns="http://www.w3.org/2000/svg">
<rect width="32" height="32" rx="16" fill="white"/>
<path d="M23.4023 17.9617V17.9626C23.6213 19.7413 24.745 21.4502 26.3037 22.3132C26.8462 22.6135 27.3361 22.7455 27.916 22.9236C27.992 22.9465 28.0109 22.889 27.9951 23.033C25.9004 23.4111 24.249 25.0051 23.6035 27.0251C23.5099 27.3188 23.4705 27.6158 23.4014 27.9138C23.3822 27.9978 23.4373 28.0087 23.2949 27.9949C22.9938 25.8293 21.6043 24.0433 19.5801 23.2654C19.3158 23.1636 19.0491 23.1148 18.7812 23.0349C18.702 23.0117 18.687 23.0661 18.7021 22.9246C20.4857 22.6206 22.061 21.3217 22.8008 19.6716C23.0377 19.1432 23.1684 18.6062 23.2959 18.0437C23.3153 17.9587 23.2597 17.9486 23.4023 17.9617ZM12.5957 7.49585V7.49487C13.0568 11.4357 15.4316 15.0359 19.0811 16.6257C19.7099 16.8998 20.3017 17.0574 20.9521 17.2478C21.0241 17.2687 21.1019 17.2115 21.0781 17.3357C17.1116 18.1971 14.1884 21.2033 13.0127 25.0642L12.5146 27.1238C12.0486 23.692 10.1728 20.3296 7.15527 18.574C6.16337 17.9968 5.2207 17.6885 4.13086 17.3708C4.05888 17.3498 3.98131 17.4068 4.00488 17.283C8.75218 16.2419 11.7938 12.3079 12.4883 7.5769C12.502 7.48167 12.461 7.48567 12.5957 7.49585ZM20.376 4.00464C20.595 5.78346 21.7185 7.49329 23.2773 8.3562C23.8198 8.65641 24.3088 8.78847 24.8887 8.96655C24.965 8.98981 24.9846 8.93138 24.9688 9.07593C22.8739 9.45398 21.2216 11.0479 20.5762 13.0681C20.4827 13.3616 20.4441 13.658 20.375 13.9558C20.3556 14.0401 20.4108 14.0516 20.2686 14.0378C19.9674 11.8722 18.5771 10.0862 16.5527 9.30835C16.2884 9.20665 16.0218 9.15782 15.7539 9.07788C15.6749 9.0548 15.6597 9.10817 15.6748 8.96655C17.4585 8.66268 19.0346 7.36479 19.7744 5.7146C20.0113 5.18631 20.1411 4.6491 20.2686 4.08667C20.288 4.00162 20.2333 3.99155 20.376 4.00464Z" fill="#4A4891"/>
</svg>
