<svg width="17" height="16" viewBox="0 0 17 16" fill="none" xmlns="http://www.w3.org/2000/svg">
<g clip-path="url(#clip0_4311_4364)">
<path d="M13.4346 9.30859L13.4697 9.53027C13.6761 10.6346 14.395 11.6696 15.3691 12.209C15.7308 12.4091 16.0577 12.4975 16.4443 12.6162C16.4949 12.6314 16.5076 12.5933 16.4971 12.6895C15.1005 12.9415 13.9996 14.0038 13.5693 15.3506C13.5069 15.5463 13.4806 15.7438 13.4346 15.9424C13.4216 15.9986 13.4584 16.0063 13.3633 15.9971C13.1625 14.5533 12.2363 13.3623 10.8867 12.8438C10.7106 12.776 10.533 12.7437 10.3545 12.6904C10.3017 12.6749 10.2907 12.7107 10.3008 12.6162C11.49 12.4136 12.5409 11.5484 13.0342 10.4482C13.1922 10.0959 13.2793 9.73738 13.3643 9.3623C13.3769 9.30606 13.3402 9.29995 13.4346 9.30859ZM6.23047 2.33008L6.2627 2.5752C6.6372 5.10553 8.19677 7.39005 10.5537 8.41699C10.973 8.5997 11.3681 8.70506 11.8018 8.83203C11.8497 8.84584 11.9015 8.80795 11.8857 8.89062C9.24133 9.46493 7.2926 11.469 6.50879 14.043L6.17676 15.416C5.86603 13.1281 4.61528 10.8863 2.60352 9.71582C1.94218 9.33102 1.31357 9.12585 0.586914 8.91406C0.538931 8.90002 0.487221 8.93804 0.50293 8.85547C3.66796 8.16146 5.69619 5.53882 6.15918 2.38477C6.1683 2.32128 6.14066 2.32329 6.23047 2.33008ZM11.417 0.00292969C11.563 1.1888 12.3123 2.329 13.3516 2.9043C13.7131 3.10438 14.0393 3.19188 14.4258 3.31055C14.4766 3.32604 14.49 3.28771 14.4795 3.38379C13.0829 3.63579 11.9812 4.69818 11.5508 6.04492C11.4883 6.24072 11.4631 6.43899 11.417 6.6377C11.4041 6.69378 11.4407 6.7006 11.3457 6.69141C11.1449 5.24795 10.2184 4.05767 8.86914 3.53906C8.69288 3.47121 8.5146 3.43808 8.33594 3.38477C8.28342 3.36951 8.27317 3.40563 8.2832 3.31152C9.47229 3.10896 10.5233 2.24359 11.0166 1.14355C11.1746 0.791287 11.2607 0.432653 11.3457 0.0576172C11.3587 0.00095886 11.3222 -0.00576319 11.417 0.00292969Z" fill="url(#paint0_linear_4311_4364)"/>
</g>
<defs>
<linearGradient id="paint0_linear_4311_4364" x1="0.5" y1="8.00028" x2="16.5004" y2="8.00028" gradientUnits="userSpaceOnUse">
<stop stop-color="#4B45FF"/>
<stop offset="1" stop-color="#7E00EC"/>
</linearGradient>
<clipPath id="clip0_4311_4364">
<rect width="16" height="16" fill="white" transform="translate(0.5)"/>
</clipPath>
</defs>
</svg>
