<svg width="40" height="185" viewBox="0 0 40 185" fill="none" xmlns="http://www.w3.org/2000/svg">
<path d="M14 159H12C5.37258 159 0 153.627 0 147V38C9.95481e-07 31.3726 5.37258 26 12 26H14C28.3594 26 40 14.3594 40 0V185C40 170.641 28.3594 159 14 159Z" fill="#5E5ADB"/>
<path d="M21.4717 125.448C22.8057 125.284 24.0881 124.441 24.7354 123.272C24.9605 122.865 25.0588 122.498 25.1924 122.063C25.2098 122.006 25.1669 121.991 25.2754 122.002C25.5589 123.574 26.7535 124.813 28.2686 125.297C28.4888 125.368 28.712 125.397 28.9355 125.449C28.9984 125.463 29.0064 125.422 28.9961 125.529C27.372 125.755 26.0326 126.797 25.4492 128.315C25.373 128.513 25.3363 128.713 25.2764 128.914C25.2589 128.973 25.2997 128.984 25.1934 128.973C24.9654 127.635 23.9915 126.454 22.7539 125.899C22.3577 125.721 21.955 125.623 21.5332 125.528C21.4694 125.513 21.4619 125.555 21.4717 125.448ZM13.6221 133.553C16.5773 133.207 19.2764 131.426 20.4687 128.689C20.6743 128.217 20.7927 127.774 20.9355 127.286C20.9514 127.232 20.9087 127.173 21.002 127.191C21.648 130.166 23.9023 132.358 26.7979 133.24L28.3428 133.614C25.7689 133.963 23.2474 135.37 21.9307 137.633C21.4978 138.377 21.2666 139.084 21.0283 139.902C21.0126 139.956 21.0551 140.014 20.9619 139.997C20.1812 136.436 17.2309 134.154 13.6826 133.633C13.6114 133.623 13.6144 133.654 13.6221 133.553ZM11.0039 127.718L11.2539 127.679C12.4962 127.447 13.6609 126.638 14.2676 125.542C14.4927 125.135 14.5911 124.767 14.7246 124.333C14.7417 124.276 14.6989 124.261 14.8066 124.273C15.0901 125.844 16.2857 127.083 17.8008 127.567C18.021 127.637 18.2434 127.666 18.4668 127.718C18.53 127.733 18.5387 127.692 18.5283 127.798C16.9042 128.024 15.5639 129.066 14.9805 130.584C14.9041 130.783 14.8676 130.983 14.8076 131.184C14.7904 131.243 14.8313 131.255 14.7256 131.244C14.4977 129.906 13.5236 128.724 12.2861 128.169C11.8898 127.992 11.4865 127.894 11.0645 127.798C11.0008 127.784 10.9941 127.825 11.0039 127.718Z" fill="white"/>
<path d="M16.373 110.112L25 113.086L25 114.884L15.0469 111.138L15.0469 109.989L16.373 110.112ZM25 107.624L16.373 110.604L15.0469 110.734L15.0469 109.579L25 105.819L25 107.624ZM21.3086 107.768L22.6689 107.768L22.6689 113.182L21.3086 113.182L21.3086 107.768ZM15.0469 102.733L25 102.733L25 104.449L15.0469 104.449L15.0469 102.733ZM21.7598 90.955L21.7598 89.246C22.4115 89.3007 22.9925 89.483 23.5029 89.7929C24.0088 90.1028 24.4076 90.538 24.6992 91.0986C24.9909 91.6591 25.1367 92.3404 25.1367 93.1425C25.1367 93.7577 25.0273 94.3114 24.8086 94.8036C24.5853 95.2958 24.2708 95.7174 23.8652 96.0683C23.4551 96.4192 22.9606 96.6881 22.3818 96.8749C21.8031 97.0572 21.1559 97.1484 20.4404 97.1484L19.6133 97.1484C18.8978 97.1484 18.2507 97.0549 17.6719 96.8681C17.0931 96.6767 16.5986 96.4032 16.1885 96.0478C15.7738 95.6923 15.457 95.2662 15.2383 94.7695C15.0195 94.2682 14.9102 93.7053 14.9102 93.081C14.9102 92.288 15.056 91.6181 15.3477 91.0712C15.6393 90.5243 16.0426 90.1005 16.5576 89.7997C17.0726 89.4944 17.6628 89.3075 18.3281 89.2392L18.3281 90.9482C17.8997 90.9937 17.5329 91.094 17.2275 91.2489C16.9222 91.3993 16.6898 91.6226 16.5303 91.9189C16.3662 92.2151 16.2842 92.6025 16.2842 93.081C16.2842 93.4729 16.3571 93.8147 16.5029 94.1064C16.6488 94.398 16.863 94.6418 17.1455 94.8378C17.4281 95.0338 17.7767 95.1819 18.1914 95.2821C18.6016 95.3779 19.071 95.4257 19.5996 95.4257L20.4404 95.4257C20.9417 95.4257 21.3975 95.3824 21.8076 95.2958C22.2132 95.2047 22.5618 95.068 22.8535 94.8857C23.1452 94.6988 23.3708 94.4618 23.5303 94.1747C23.6898 93.8876 23.7695 93.5435 23.7695 93.1425C23.7695 92.6549 23.6921 92.2607 23.5371 91.9599C23.3822 91.6545 23.1566 91.4244 22.8604 91.2695C22.5596 91.1099 22.1927 91.0051 21.7598 90.955ZM14.5 86.0845L25 86.0845L25 87.7252L14.5 87.7252L14.5 86.0845ZM21.0283 86.3716L21.0215 86.9048C20.5111 86.9003 20.0394 86.8296 19.6064 86.6929C19.1735 86.5517 18.7975 86.3557 18.4785 86.105C18.1549 85.8498 17.9066 85.5445 17.7334 85.189C17.5557 84.8336 17.4668 84.4393 17.4668 84.0064C17.4668 83.6418 17.5169 83.3137 17.6172 83.022C17.7174 82.7258 17.8792 82.4706 18.1025 82.2564C18.3213 82.0422 18.6084 81.8804 18.9639 81.7711C19.3148 81.6571 19.7432 81.6002 20.249 81.6002L25 81.6002L25 83.2545L20.2354 83.2545C19.8799 83.2545 19.5973 83.3069 19.3877 83.4117C19.1781 83.5119 19.0277 83.6601 18.9365 83.856C18.8408 84.052 18.793 84.2912 18.793 84.5738C18.793 84.87 18.8522 85.1321 18.9707 85.3599C19.0892 85.5832 19.251 85.7701 19.4561 85.9205C19.6611 86.0709 19.8981 86.1848 20.167 86.2623C20.4359 86.3352 20.723 86.3716 21.0283 86.3716ZM23.5166 75.6223L19.9893 75.6223C19.7249 75.6223 19.4971 75.6701 19.3057 75.7658C19.1143 75.8615 18.9661 76.0074 18.8613 76.2033C18.7565 76.3947 18.7041 76.6363 18.7041 76.9279C18.7041 77.1968 18.7497 77.4292 18.8408 77.6252C18.932 77.8212 19.055 77.9738 19.21 78.0832C19.3649 78.1926 19.5404 78.2473 19.7363 78.2473L19.7363 79.8879C19.4447 79.8879 19.1621 79.8173 18.8887 79.676C18.6152 79.5347 18.3714 79.3296 18.1572 79.0607C17.943 78.7919 17.7744 78.4706 17.6514 78.0969C17.5283 77.7232 17.4668 77.3039 17.4668 76.8391C17.4668 76.2831 17.5602 75.7909 17.7471 75.3625C17.9339 74.9296 18.2165 74.59 18.5947 74.3439C18.9684 74.0933 19.4378 73.968 20.0029 73.968L23.291 73.968C23.6283 73.968 23.9313 73.9452 24.2002 73.8996C24.4645 73.8495 24.6947 73.7788 24.8906 73.6877L25 73.6877L25 75.3762C24.8223 75.4536 24.5967 75.5152 24.3232 75.5607C24.0452 75.6018 23.7764 75.6223 23.5166 75.6223ZM20.502 75.383L21.5205 75.3693L21.5205 76.552C21.5205 76.8573 21.5501 77.1262 21.6094 77.3586C21.6641 77.591 21.7461 77.7847 21.8555 77.9396C21.9648 78.0946 22.097 78.2108 22.252 78.2883C22.4069 78.3658 22.5824 78.4045 22.7783 78.4045C22.9743 78.4045 23.1543 78.3589 23.3184 78.2678C23.4779 78.1766 23.6032 78.0445 23.6943 77.8713C23.7855 77.6936 23.8311 77.4794 23.8311 77.2287C23.8311 76.8915 23.7627 76.5975 23.626 76.3469C23.4847 76.0917 23.3138 75.8911 23.1133 75.7453C22.9082 75.5995 22.7145 75.522 22.5322 75.5129L23.2637 74.9797C23.4505 75.0344 23.651 75.1278 23.8652 75.26C24.0794 75.3921 24.2845 75.5653 24.4805 75.7795C24.6719 75.9891 24.8291 76.2421 24.9521 76.5383C25.0752 76.8299 25.1367 77.1672 25.1367 77.55C25.1367 78.0331 25.041 78.4637 24.8496 78.842C24.6536 79.2202 24.3916 79.5165 24.0635 79.7307C23.7308 79.9449 23.3548 80.052 22.9355 80.052C22.5436 80.052 22.1973 79.979 21.8965 79.8332C21.5911 79.6828 21.3359 79.4641 21.1309 79.177C20.9258 78.8853 20.7708 78.5298 20.666 78.1105C20.5566 77.6913 20.502 77.2128 20.502 76.675L20.502 75.383ZM17.6035 68.7147L18.8066 68.7147L18.8066 72.8846L17.6035 72.8846L17.6035 68.7147ZM15.792 71.6815L15.792 70.034L22.9561 70.034C23.1839 70.034 23.3594 70.0021 23.4824 69.9383C23.6009 69.87 23.6807 69.7765 23.7217 69.658C23.7627 69.5396 23.7832 69.4006 23.7832 69.2411C23.7832 69.1271 23.7764 69.0177 23.7627 68.9129C23.749 68.8081 23.7353 68.7238 23.7217 68.66L24.9795 68.6532C25.0205 68.7899 25.057 68.9494 25.0889 69.1317C25.1208 69.3094 25.1367 69.5145 25.1367 69.7469C25.1367 70.1252 25.0706 70.4601 24.9385 70.7518C24.8018 71.0435 24.5807 71.2713 24.2754 71.4354C23.9701 71.5995 23.5645 71.6815 23.0586 71.6815L15.792 71.6815ZM20.502 63.4067L20.502 65.9429L19.251 65.9565L19.251 63.7417C19.251 63.368 19.1963 63.0513 19.0869 62.7915C18.973 62.5272 18.8112 62.3266 18.6016 62.1899C18.3874 62.0532 18.1299 61.9848 17.8291 61.9848C17.4964 61.9848 17.2253 62.0486 17.0156 62.1763C16.806 62.3039 16.6533 62.4998 16.5576 62.7641C16.4619 63.0239 16.4141 63.3566 16.4141 63.7622L16.4141 65.4233L25 65.4233L25 67.1391L15.0469 67.1391L15.0469 63.7622C15.0469 63.2153 15.0993 62.7277 15.2041 62.2993C15.3089 61.8664 15.473 61.4995 15.6963 61.1987C15.915 60.8934 16.193 60.6632 16.5303 60.5083C16.8675 60.3488 17.2686 60.269 17.7334 60.269C18.1436 60.269 18.5195 60.367 18.8613 60.563C19.1986 60.7589 19.4743 61.0483 19.6885 61.4311C19.9027 61.8139 20.0303 62.2902 20.0713 62.8598L20.502 63.4067ZM25 63.4819L25 66.4829L23.6396 65.7104L23.6396 63.4819C23.6396 63.0945 23.5758 62.771 23.4482 62.5112C23.3161 62.2514 23.1361 62.0578 22.9082 61.9302C22.6758 61.798 22.4046 61.7319 22.0947 61.7319C21.7712 61.7319 21.4909 61.7889 21.2539 61.9028C21.0124 62.0167 20.8278 62.1968 20.7002 62.4429C20.568 62.6889 20.502 63.0102 20.502 63.4067L20.502 65.3345L19.251 65.3208L19.251 62.812L19.7227 62.4223C19.7409 61.8755 19.8617 61.4266 20.085 61.0757C20.3083 60.7202 20.5977 60.4559 20.9531 60.2827C21.3086 60.1095 21.6914 60.0229 22.1016 60.0229C22.735 60.0229 23.2659 60.1619 23.6943 60.4399C24.1227 60.7134 24.4486 61.1076 24.6719 61.6225C24.8906 62.1375 25 62.7573 25 63.4819ZM21.3838 58.632L21.2266 58.632C20.6934 58.632 20.1989 58.5545 19.7432 58.3995C19.2829 58.2446 18.8841 58.0213 18.5469 57.7296C18.2051 57.4334 17.9408 57.0734 17.7539 56.6495C17.5625 56.2211 17.4668 55.7381 17.4668 55.2003C17.4668 54.658 17.5625 54.1749 17.7539 53.7511C17.9408 53.3227 18.2051 52.9604 18.5469 52.6642C18.8841 52.368 19.2829 52.1424 19.7432 51.9874C20.1989 51.8325 20.6934 51.755 21.2266 51.755L21.3838 51.755C21.917 51.755 22.4115 51.8325 22.8672 51.9874C23.3229 52.1424 23.7217 52.368 24.0635 52.6642C24.4007 52.9604 24.665 53.3204 24.8564 53.7443C25.0433 54.1681 25.1367 54.6489 25.1367 55.1866C25.1367 55.729 25.0433 56.2143 24.8564 56.6427C24.665 57.0665 24.4007 57.4265 24.0635 57.7228C23.7217 58.019 23.3229 58.2446 22.8672 58.3995C22.4115 58.5545 21.917 58.632 21.3838 58.632ZM21.2266 56.9845L21.3838 56.9845C21.7165 56.9845 22.0309 56.9503 22.3271 56.882C22.6234 56.8136 22.8831 56.7065 23.1064 56.5607C23.3298 56.4148 23.5052 56.228 23.6328 56.0001C23.7604 55.7723 23.8242 55.5011 23.8242 55.1866C23.8242 54.8813 23.7604 54.617 23.6328 54.3937C23.5052 54.1658 23.3297 53.979 23.1064 53.8331C22.8831 53.6873 22.6234 53.5802 22.3271 53.5118C22.0309 53.4389 21.7165 53.4025 21.3838 53.4025L21.2266 53.4025C20.8984 53.4025 20.5885 53.4389 20.2969 53.5118C20.0006 53.5802 19.7386 53.6896 19.5107 53.84C19.2829 53.9858 19.1051 54.1726 18.9775 54.4005C18.8454 54.6238 18.7793 54.8904 18.7793 55.2003C18.7793 55.5102 18.8454 55.7791 18.9775 56.007C19.1051 56.2303 19.2829 56.4148 19.5107 56.5607C19.7386 56.7065 20.0006 56.8136 20.2969 56.882C20.5885 56.9503 20.8984 56.9845 21.2266 56.9845ZM17.6035 46.8435L18.8066 46.8435L18.8066 51.0134L17.6035 51.0134L17.6035 46.8435ZM15.792 49.8103L15.792 48.1629L22.9561 48.1629C23.1839 48.1629 23.3594 48.131 23.4824 48.0671C23.6009 47.9988 23.6807 47.9054 23.7217 47.7869C23.7627 47.6684 23.7832 47.5294 23.7832 47.3699C23.7832 47.256 23.7764 47.1466 23.7627 47.0418C23.749 46.9369 23.7353 46.8526 23.7217 46.7888L24.9795 46.782C25.0205 46.9187 25.057 47.0782 25.0889 47.2605C25.1208 47.4382 25.1367 47.6433 25.1367 47.8757C25.1367 48.254 25.0706 48.589 24.9385 48.8806C24.8018 49.1723 24.5807 49.4002 24.2754 49.5642C23.97 49.7283 23.5645 49.8103 23.0586 49.8103L15.792 49.8103Z" fill="white"/>
</svg>
