<svg width="272" height="272" viewBox="0 0 272 272" fill="none" xmlns="http://www.w3.org/2000/svg">
<path d="M198.019 153.372C198.184 152.65 197.713 152.57 198.925 152.681V152.687C200.786 167.807 210.339 182.334 223.59 189.669C228.201 192.221 232.359 193.34 237.288 194.854C237.937 195.051 238.102 194.556 237.968 195.786C220.161 198.999 206.12 212.544 200.634 229.716C199.838 232.212 199.507 234.733 198.919 237.267C198.754 237.983 199.225 238.076 198.013 237.959C195.453 219.551 183.641 204.368 166.435 197.757C164.187 196.892 161.921 196.479 159.644 195.799C158.97 195.601 158.841 196.064 158.97 194.859C174.131 192.277 187.524 181.24 193.812 167.214C195.827 162.722 196.935 158.155 198.019 153.372ZM107.064 63.7139V63.708C110.983 97.2049 131.173 127.804 162.193 141.317C167.539 143.647 172.566 144.989 178.096 146.607C178.708 146.787 179.37 146.298 179.168 147.354C145.453 154.677 120.61 180.228 110.616 213.045L106.379 230.551C102.417 201.379 86.472 172.801 60.8213 157.878C52.3894 152.972 44.3799 150.352 35.1152 147.651C34.5029 147.472 33.8419 147.96 34.0439 146.903C74.3967 138.055 100.255 104.62 106.158 64.4062C106.275 63.5969 105.92 63.6274 107.064 63.7139ZM172.291 34.7334C172.456 34.0104 171.985 33.9298 173.197 34.041V34.0479C175.059 49.168 184.611 63.6947 197.862 71.0293C202.473 73.5813 206.631 74.7 211.561 76.2139C212.209 76.4113 212.375 75.9176 212.24 77.1465C194.434 80.3596 180.392 93.9045 174.905 111.076C174.109 113.572 173.779 116.094 173.191 118.627C173.026 119.344 173.497 119.437 172.285 119.319C169.726 100.912 157.913 85.7298 140.706 79.1182C138.459 78.2532 136.194 77.8388 133.916 77.1592C133.242 76.9614 133.114 77.4247 133.242 76.2197C148.404 73.6368 161.795 62.6008 168.084 48.5742C170.098 44.0821 171.207 39.5159 172.291 34.7334Z" fill="url(#paint0_linear_4426_19611)"/>
<defs>
<linearGradient id="paint0_linear_4426_19611" x1="34.0002" y1="34" x2="238" y2="238" gradientUnits="userSpaceOnUse">
<stop stop-color="#FBFBFF"/>
<stop offset="1" stop-color="#CACAFF" stop-opacity="0"/>
</linearGradient>
</defs>
</svg>
