<svg width="400" height="100" viewBox="0 0 400 100" fill="none" xmlns="http://www.w3.org/2000/svg">
<path d="M308.832 50.1543C308.832 59.8545 302.823 65.4121 294.969 65.4121C287.053 65.4121 281.064 59.8135 281.064 50.1543C281.064 40.4541 287.053 34.8965 294.969 34.8965C302.823 34.8965 308.832 40.4541 308.832 50.1543ZM287.34 50.1543C287.34 56.4912 290.354 59.9365 294.969 59.957C299.542 59.9365 302.577 56.4912 302.557 50.1543C302.577 43.7969 299.542 40.3721 294.969 40.3516C290.354 40.3721 287.34 43.7969 287.34 50.1543Z" fill="black"/>
<path d="M255.102 65.0078V35.3125H266.75C273.497 35.3125 277.373 39.1064 277.373 44.9922C277.373 49.0527 275.507 52.0059 272.123 53.4619L278.439 65.0078H271.631L265.95 54.4668H261.254V65.0078H255.102ZM261.254 49.4629H265.602C269.252 49.4629 271.036 47.9658 271.016 44.9922C271.036 41.998 269.252 40.3779 265.602 40.3574H261.254V49.4629Z" fill="black"/>
<path d="M244.068 44.8633C243.228 42.0742 240.992 40.3721 237.752 40.3516C233.158 40.3721 230.041 43.8789 230.041 50.1133C230.041 56.3887 233.056 59.9365 237.793 59.957C242.038 59.9365 244.561 57.5371 244.643 53.8047H238.203V49.1699H250.59V52.8613C250.59 60.6543 245.237 65.4121 237.752 65.4121C229.426 65.4121 223.766 59.5879 223.766 50.1953C223.766 40.5566 229.795 34.8965 237.629 34.8965C244.335 34.8965 249.482 39.0186 250.303 44.8633H244.068Z" fill="black"/>
<path d="M199.607 65.0078V35.3125H219.541V40.3984H205.76V47.6172H218.516V52.7031H205.76V59.9219H219.582V65.0078H199.607Z" fill="black"/>
<path d="M176.68 65.0078V35.3125H182.832V59.9219H195.629V65.0078H176.68Z" fill="black"/>
<path d="M153.752 65.0078V35.3125H159.904V59.9219H172.701V65.0078H153.752Z" fill="black"/>
<path d="M128.568 65.0078H121.924L132.219 35.3125H140.135L150.389 65.0078H143.785L141.55 58.1582H130.804L128.568 65.0078ZM132.362 53.3594H139.991L136.279 41.998H136.074L132.362 53.3594Z" fill="black"/>
<path fill-rule="evenodd" clip-rule="evenodd" d="M43.2188 19.6031L45.8258 16.9961H76.0436L78.6507 19.6031V34.7239H73.4366V22.2102H48.4328V34.7239H43.2188V19.6031Z" fill="black"/>
<path fill-rule="evenodd" clip-rule="evenodd" d="M59.8731 39.1169L61.807 39.1152L99.7037 54.2123L97.7741 59.0562L60.8446 44.3444L24.104 59.0545L22.166 54.214L59.8731 39.1169Z" fill="#0089FF"/>
<path fill-rule="evenodd" clip-rule="evenodd" d="M43.9723 82.2393L28.8516 67.1185L32.5385 63.4316L46.8957 77.7888H74.9775L89.3347 63.4316L93.0216 67.1185L77.9008 82.2393L76.0573 83.0029H45.8158L43.9723 82.2393Z" fill="black"/>
<path d="M344.822 36.5C344.822 35.6714 344.138 35 343.293 35H329.716C329.109 35 328.526 35.2381 328.094 35.6571L325.235 38.4619C324.803 38.8857 324.22 39.119 323.614 39.119H320.361C319.516 39.119 318.832 39.7905 318.832 40.619V64.2429C318.832 64.6571 319.177 64.9952 319.599 64.9952H324.186C324.609 64.9952 324.949 64.6571 324.949 64.2429V42.5C324.949 41.6714 325.633 41 326.478 41H337.949C338.371 41 338.716 41.3381 338.716 41.7476V64.2476C338.716 64.6619 339.06 65 339.483 65H344.07C344.492 65 344.832 64.6619 344.832 64.2476V36.5H344.822Z" fill="url(#paint0_linear_6072_38846)"/>
<path d="M377.7 63.9262L369.395 52.8571C369.112 52.4784 368.661 52.2531 368.186 52.2531H365.984C365.673 52.2531 365.495 51.8984 365.682 51.6491L377.366 36.0786C377.697 35.6376 377.381 35.0048 376.829 35.0048H371.237C370.882 35.0048 370.546 35.1726 370.33 35.4554L363.572 44.4631C363.37 44.7315 362.968 44.7315 362.766 44.4631L356.008 35.4554C355.792 35.1726 355.456 35 355.101 35H349.504C348.952 35 348.636 35.6328 348.967 36.0738L359.178 49.6836C359.317 49.8706 359.317 50.1246 359.178 50.3116L348.967 63.9262C348.636 64.3672 348.952 65 349.504 65H355.097C355.452 65 355.787 64.8322 356.003 64.5446L362.929 55.3116C363.131 55.0431 363.533 55.0431 363.735 55.3116L370.661 64.5446C370.877 64.8274 371.213 65 371.567 65H377.16C377.712 65 378.031 64.3672 377.7 63.9262Z" fill="url(#paint1_linear_6072_38846)"/>
<defs>
<linearGradient id="paint0_linear_6072_38846" x1="331.832" y1="35" x2="331.832" y2="65" gradientUnits="userSpaceOnUse">
<stop stop-color="#0D95FD"/>
<stop offset="1" stop-color="#4741AD"/>
</linearGradient>
<linearGradient id="paint1_linear_6072_38846" x1="363.332" y1="35" x2="363.332" y2="65" gradientUnits="userSpaceOnUse">
<stop stop-color="#0D95FD"/>
<stop offset="1" stop-color="#4741AD"/>
</linearGradient>
</defs>
</svg>
